<svg xmlns="http://www.w3.org/2000/svg" width="1440" height="956" fill="none" viewBox="0 0 1440 956"><g stroke-opacity=".4" clip-path="url(#a)"><ellipse cx="722" cy="1050" stroke="url(#b)" rx="1881" ry="1050"/><ellipse cx="722.5" cy="1050" stroke="url(#c)" rx="1188.5" ry="1050"/><ellipse cx="722" cy="1050" stroke="url(#d)" rx="777" ry="1050"/><ellipse cx="722.5" cy="1050" stroke="url(#e)" rx="470.5" ry="1050"/><path stroke="url(#f)" d="M722 0v2100"/><path stroke="url(#g)" d="M1958.5 255h-2477"/><path stroke="url(#h)" d="M2346.5 520h-3253"/><path stroke="url(#i)" d="M2542 785h-3644"/></g><defs><linearGradient id="b" x1="722" x2="722" y1="0" y2="2100" gradientUnits="userSpaceOnUse"><stop stop-color="#fff" stop-opacity=".36"/><stop offset="1" stop-color="none" stop-opacity="0"/></linearGradient><linearGradient id="c" x1="722.5" x2="722.5" y1="0" y2="2100" gradientUnits="userSpaceOnUse"><stop stop-color="#fff" stop-opacity=".36"/><stop offset="1" stop-color="none" stop-opacity="0"/></linearGradient><linearGradient id="d" x1="722" x2="722" y1="0" y2="2100" gradientUnits="userSpaceOnUse"><stop stop-color="#fff" stop-opacity=".36"/><stop offset="1" stop-color="none" stop-opacity="0"/></linearGradient><linearGradient id="e" x1="722.5" x2="722.5" y1="0" y2="2100" gradientUnits="userSpaceOnUse"><stop stop-color="#fff" stop-opacity=".36"/><stop offset="1" stop-color="none" stop-opacity="0"/></linearGradient><linearGradient id="f" x1="722.5" x2="722.5" y1="0" y2="2100" gradientUnits="userSpaceOnUse"><stop stop-color="#fff" stop-opacity=".36"/><stop offset="1" stop-color="none" stop-opacity="0"/></linearGradient><linearGradient id="g" x1="1958.5" x2="-518.5" y1="255.5" y2="255.5" gradientUnits="userSpaceOnUse"><stop stop-color="#fff" stop-opacity=".36"/><stop offset="1" stop-color="none" stop-opacity="0"/></linearGradient><linearGradient id="h" x1="2346.5" x2="-906.5" y1="520.5" y2="520.5" gradientUnits="userSpaceOnUse"><stop stop-color="#fff" stop-opacity=".36"/><stop offset="1" stop-color="none" stop-opacity="0"/></linearGradient><linearGradient id="i" x1="2542" x2="-1102" y1="785.5" y2="785.5" gradientUnits="userSpaceOnUse"><stop stop-color="#fff" stop-opacity=".36"/><stop offset="1" stop-color="none" stop-opacity="0"/></linearGradient><clipPath id="a"><path fill="#fff" d="M0 0h1440v956H0z"/></clipPath></defs></svg>